<?xml version="1.0" standalone="no"?>
<!DOCTYPE svg PUBLIC "-//W3C//DTD SVG 20010904//EN"
 "http://www.w3.org/TR/2001/REC-SVG-20010904/DTD/svg10.dtd">
<svg version="1.0" xmlns="http://www.w3.org/2000/svg"
 width="1024.000000pt" height="1024.000000pt" viewBox="0 0 1024.000000 1024.000000"
 preserveAspectRatio="xMidYMid meet">

<g transform="translate(0.000000,1024.000000) scale(0.100000,-0.100000)"
fill="#000000" stroke="none">
<path d="M0 5120 l0 -5120 5120 0 5120 0 0 5120 0 5120 -5120 0 -5120 0 0
-5120z m5405 3175 c22 -2 69 -7 105 -10 253 -25 627 -135 895 -265 308 -150
643 -390 826 -591 367 -404 592 -808 723 -1295 137 -509 139 -927 10 -1449
-91 -365 -217 -651 -431 -973 -288 -435 -652 -749 -1148 -988 -321 -155 -631
-244 -994 -285 -173 -19 -554 -6 -731 25 -331 58 -605 153 -895 308 -536 288
-914 662 -1213 1200 -207 373 -322 746 -367 1195 -7 73 -7 421 0 478 27 210
127 636 190 810 89 244 297 595 486 821 324 385 837 728 1336 894 327 108 555
142 918 134 138 -3 268 -7 290 -9z m-2731 -5335 c29 -11 53 -52 62 -109 6 -36
3 -43 -24 -70 -55 -56 -114 -51 -152 11 -28 46 -26 90 7 128 38 45 66 56 107
40z m4955 -25 c29 -14 51 -58 51 -99 0 -35 -27 -63 -76 -82 l-47 -18 -33 37
c-27 29 -34 45 -34 76 0 55 8 71 44 87 40 17 61 17 95 -1z"/>
<path d="M3975 7823 c-211 -31 -369 -142 -485 -338 -41 -71 -83 -193 -94 -275
-9 -65 11 -231 39 -317 83 -261 337 -471 611 -504 255 -31 511 130 612 387 52
130 66 336 37 510 -52 306 -318 540 -615 541 -41 0 -88 -1 -105 -4z"/>
<path d="M5368 7644 c-11 -11 -10 -62 2 -85 10 -18 27 -19 525 -19 l514 0 15
28 c8 16 12 39 9 50 l-5 22 -453 0 c-248 0 -485 3 -526 6 -41 3 -77 3 -81 -2z"/>
<path d="M5918 7363 c-586 -3 -608 -4 -608 -22 0 -10 3 -33 6 -50 l7 -32 659
3 c646 3 660 3 674 23 8 11 14 34 12 50 l-3 30 -70 0 c-38 0 -343 -1 -677 -2z"/>
<path d="M6530 7100 c-162 -6 -220 -20 -234 -56 -8 -21 -11 -20 52 -33 63 -13
401 -15 422 -2 8 6 14 25 14 46 0 43 -15 55 -64 53 -19 -1 -105 -5 -190 -8z"/>
<path d="M6028 7063 c-10 -2 -18 -13 -18 -22 0 -13 10 -20 38 -25 49 -8 112
-7 136 3 19 7 19 8 -2 29 -18 18 -33 22 -79 21 -32 -1 -66 -3 -75 -6z"/>
<path d="M5421 6758 c-7 -18 -23 -49 -36 -70 -19 -28 -21 -39 -12 -47 15 -12
163 -66 412 -151 94 -32 233 -82 310 -110 270 -100 341 -122 400 -127 58 -5
65 -3 145 40 47 25 190 91 317 146 263 114 373 167 373 181 0 33 -25 113 -42
135 -25 32 -19 33 -218 -57 -380 -172 -452 -209 -530 -273 -30 -25 -62 -45
-70 -45 -8 0 -32 11 -52 25 -72 49 -272 131 -708 290 -80 29 -169 62 -198 74
-70 28 -78 27 -91 -11z"/>
<path d="M2796 6714 c-4 -9 -4 -32 0 -50 l6 -34 164 0 164 0 10 26 c6 14 7 36
4 50 l-6 24 -168 0 c-146 0 -169 -2 -174 -16z"/>
<path d="M5221 6476 c-12 -25 -44 -107 -70 -183 -27 -76 -74 -201 -106 -278
-31 -77 -70 -176 -85 -220 -60 -169 -98 -281 -105 -305 -8 -25 -8 -25 14 -6
19 17 38 20 149 20 125 1 128 0 195 -33 89 -43 169 -123 198 -199 17 -44 23
-79 23 -152 1 -89 -1 -100 -37 -180 -21 -47 -41 -90 -43 -97 -3 -6 8 -19 25
-27 23 -12 299 -115 344 -129 11 -3 55 112 133 347 63 193 321 855 367 944 12
23 32 55 43 69 l21 27 17 -31 c39 -76 15 -183 -109 -488 -96 -235 -143 -362
-210 -560 -35 -104 -76 -223 -90 -263 -37 -104 -27 -122 75 -122 71 0 100 24
126 105 58 185 167 482 246 675 79 193 270 721 264 728 -2 1 -16 -4 -32 -13
-57 -29 -89 -22 -399 94 -128 47 -366 134 -545 198 -101 36 -266 89 -371 120
-12 3 -23 -9 -38 -41z"/>
<path d="M7420 6476 c-30 -13 -113 -49 -185 -81 -71 -31 -155 -68 -185 -80
-30 -13 -108 -48 -172 -79 -116 -54 -118 -56 -118 -88 0 -33 -24 -105 -95
-288 -21 -52 -57 -149 -80 -215 -90 -253 -285 -770 -318 -845 -13 -30 -27 -69
-30 -87 l-6 -31 83 28 c71 24 304 117 315 126 2 2 -8 29 -23 60 -44 92 -59
174 -46 247 25 136 112 258 229 321 68 36 139 39 226 8 32 -12 63 -22 67 -22
11 0 32 52 89 220 81 239 127 367 145 401 9 18 27 62 39 98 19 54 57 146 132
319 7 17 -4 15 -67 -12z"/>
<path d="M2828 6463 c-30 -5 -42 -31 -36 -74 3 -24 5 -24 132 -27 139 -3 146
-1 146 50 0 48 -21 58 -123 57 -51 -1 -104 -4 -119 -6z"/>
<path d="M3534 6426 c-10 -26 25 -122 67 -184 88 -133 236 -225 404 -252 84
-13 167 0 253 40 96 45 146 90 180 163 29 61 47 127 35 127 -3 0 -44 -15 -92
-34 -119 -48 -192 -60 -314 -53 -157 8 -291 58 -436 161 -69 49 -88 55 -97 32z"/>
<path d="M3315 6297 c-393 -212 -690 -606 -791 -1050 -21 -93 -30 -527 -15
-718 12 -157 31 -218 122 -401 77 -153 277 -450 380 -563 279 -307 408 -419
660 -571 265 -159 571 -280 919 -362 174 -41 644 -51 890 -18 482 63 941 254
1367 568 l122 90 -32 40 c-93 116 -359 282 -578 362 -281 101 -731 125 -1124
60 -195 -33 -493 -107 -642 -160 -172 -61 -493 -192 -680 -278 -193 -89 -243
-95 -243 -29 0 71 65 126 230 193 66 28 143 61 171 75 130 66 384 167 549 218
307 95 566 147 830 167 142 12 508 6 595 -9 38 -7 42 -5 84 41 23 27 107 99
185 162 158 128 311 260 433 376 l83 78 -84 46 -85 45 -54 -23 c-29 -13 -109
-42 -178 -64 -68 -22 -170 -57 -227 -77 -182 -64 -325 -59 -460 16 l-53 30
-54 -26 c-57 -28 -123 -42 -150 -31 -15 5 -14 10 5 41 26 42 21 62 -17 71 -15
4 -57 20 -92 35 -91 41 -107 39 -182 -28 -68 -61 -176 -116 -248 -128 -29 -5
-54 -17 -70 -34 -26 -27 -58 -62 -182 -196 -63 -69 -230 -225 -339 -316 -309
-257 -349 -287 -599 -455 -193 -130 -269 -153 -279 -84 -4 26 30 65 103 118
363 261 709 539 916 736 88 83 217 192 257 217 12 8 22 17 22 20 0 8 -39 25
-125 56 -90 33 -144 70 -188 130 -46 63 -62 97 -77 161 -7 30 -18 56 -26 59
-15 5 -128 -59 -299 -172 -532 -350 -738 -469 -799 -463 -29 3 -31 6 -29 38 1
19 6 62 12 95 8 41 9 194 5 475 l-7 415 27 33 c37 43 75 43 110 1 l26 -31 0
-376 c0 -207 3 -386 6 -398 5 -20 13 -16 107 46 166 108 475 303 579 364 108
63 165 86 212 86 32 0 33 1 50 75 26 109 58 166 136 238 59 55 92 76 180 117
8 4 22 38 31 76 8 38 31 119 51 179 19 61 43 135 52 166 9 31 28 73 41 94 l25
36 -20 26 c-34 43 -127 120 -191 158 -33 19 -62 35 -64 35 -2 0 -19 -28 -37
-62 -108 -205 -386 -333 -614 -285 -147 31 -275 97 -373 190 -61 59 -141 175
-167 242 -9 25 -22 45 -28 45 -6 0 -38 -15 -71 -33z"/>
<path d="M4945 5363 c-53 -11 -145 -49 -194 -80 -234 -149 -298 -372 -154
-533 103 -115 210 -149 343 -108 112 35 297 232 345 368 18 50 19 129 4 185
-30 108 -212 197 -344 168z"/>
<path d="M6857 5336 c-124 -46 -181 -176 -147 -337 27 -125 181 -319 254 -319
85 0 157 57 207 162 30 64 34 83 34 153 0 106 -23 171 -85 238 -80 87 -189
130 -263 103z"/>
<path d="M6847 4173 c-9 -8 -9 -50 -1 -81 l7 -23 289 3 c313 3 308 2 308 58 0
49 -5 50 -310 50 -158 0 -290 -3 -293 -7z"/>
<path d="M6900 3845 c0 -10 10 -15 33 -14 17 0 25 3 17 6 -8 3 -23 10 -32 15
-13 6 -18 5 -18 -7z"/>
</g>
</svg>
